<?xml version="1.0" encoding="UTF-8" standalone="no"?>
<!-- Created with Inkscape (http://www.inkscape.org/) -->

<svg
   width="108.94382mm"
   height="121.50803mm"
   viewBox="0 0 108.94382 121.50803"
   version="1.1"
   id="svg1"
   inkscape:version="1.3.2 (091e20e, 2023-11-25, custom)"
   sodipodi:docname="krovv.svg"
   xmlns:inkscape="http://www.inkscape.org/namespaces/inkscape"
   xmlns:sodipodi="http://sodipodi.sourceforge.net/DTD/sodipodi-0.dtd"
   xmlns="http://www.w3.org/2000/svg"
   xmlns:svg="http://www.w3.org/2000/svg">
  <sodipodi:namedview
     id="namedview1"
     pagecolor="#ffffff"
     bordercolor="#000000"
     borderopacity="0.25"
     inkscape:showpageshadow="2"
     inkscape:pageopacity="0.0"
     inkscape:pagecheckerboard="0"
     inkscape:deskcolor="#d1d1d1"
     inkscape:document-units="mm"
     inkscape:zoom="0.46235269"
     inkscape:cx="291.98489"
     inkscape:cy="223.85508"
     inkscape:window-width="1366"
     inkscape:window-height="715"
     inkscape:window-x="-8"
     inkscape:window-y="-8"
     inkscape:window-maximized="1"
     inkscape:current-layer="layer1" />
  <defs
     id="defs1">
    <inkscape:path-effect
       effect="powerstroke"
       id="path-effect2"
       is_visible="true"
       lpeversion="1.3"
       scale_width="1"
       interpolator_type="CubicBezierJohan"
       interpolator_beta="0.2"
       start_linecap_type="zerowidth"
       end_linecap_type="zerowidth"
       offset_points="0,4.9921382"
       linejoin_type="extrp_arc"
       miter_limit="4"
       not_jump="false"
       sort_points="true"
       message="&lt;b&gt;Ctrl + click&lt;/b&gt; on existing node and move it" />
    <inkscape:path-effect
       effect="bspline"
       id="path-effect1"
       is_visible="true"
       lpeversion="1.3"
       weight="33.333333"
       steps="2"
       helper_size="0"
       apply_no_weight="true"
       apply_with_weight="true"
       only_selected="false"
       uniform="false" />
    <inkscape:path-effect
       effect="fill_between_many"
       method="bsplinespiro"
       autoreverse="false"
       close="false"
       join="false"
       linkedpaths="#path1,0,1"
       id="path-effect3"
       is_visible="true"
       lpeversion="0" />
    <filter
       inkscape:label="Ink Bleed"
       inkscape:menu="Protrusions"
       inkscape:menu-tooltip="Inky splotches underneath the object"
       style="color-interpolation-filters:sRGB"
       id="filter68"
       x="-0.064371856"
       y="-0.056446069"
       width="1.1287437"
       height="1.1128921">
      <feGaussianBlur
         result="result1"
         in="SourceGraphic"
         stdDeviation="1.3"
         id="feGaussianBlur67" />
      <feTurbulence
         result="result0"
         numOctaves="4"
         baseFrequency="0.034"
         id="feTurbulence67" />
      <feDisplacementMap
         result="result2"
         scale="19.6"
         yChannelSelector="G"
         xChannelSelector="R"
         in="result1"
         in2="result0"
         id="feDisplacementMap67" />
      <feColorMatrix
         values="2 0 0 0 0 0 2 0 0 0 0 0 2 0 0 0 0 0 0.7 0"
         result="result3"
         id="feColorMatrix67" />
      <feGaussianBlur
         result="result4"
         in="SourceGraphic"
         stdDeviation="1.1"
         id="feGaussianBlur68" />
      <feComposite
         in="result4"
         in2="result3"
         id="feComposite68" />
    </filter>
    <filter
       height="1.3198783"
       width="1.3704345"
       y="-0.15993913"
       x="-0.18521727"
       inkscape:menu-tooltip="Van Gogh painting effect for bitmaps"
       inkscape:menu="Distort"
       inkscape:label="Cross Blur"
       style="color-interpolation-filters:sRGB"
       id="filter71">
      <feTurbulence
         type="fractalNoise"
         numOctaves="3"
         baseFrequency="0.25 0.4"
         seed="5"
         id="feTurbulence70" />
      <feColorMatrix
         result="result5"
         values="1 0 0 0 0 0 1 0 0 0 0 0 1 0 0 0 0 0 1 0 "
         id="feColorMatrix70" />
      <feComposite
         in="SourceGraphic"
         operator="in"
         in2="result5"
         id="feComposite70" />
      <feMorphology
         operator="dilate"
         radius="1.5"
         result="result3"
         id="feMorphology70" />
      <feTurbulence
         numOctaves="5"
         baseFrequency="0.03"
         type="fractalNoise"
         seed="7"
         id="feTurbulence71" />
      <feGaussianBlur
         stdDeviation="0.5"
         result="result91"
         id="feGaussianBlur71" />
      <feDisplacementMap
         in="result3"
         xChannelSelector="R"
         yChannelSelector="G"
         scale="27"
         result="result4"
         in2="result91"
         id="feDisplacementMap71" />
      <feComposite
         in="result4"
         k3="0.8"
         k1="1.3"
         result="result2"
         operator="arithmetic"
         in2="result4"
         id="feComposite71"
         k2="0"
         k4="0" />
      <feBlend
         in2="result2"
         mode="screen"
         in="result2"
         id="feBlend71"
         result="fbSourceGraphic" />
      <feColorMatrix
         result="fbSourceGraphicAlpha"
         in="fbSourceGraphic"
         values="0 0 0 -1 0 0 0 0 -1 0 0 0 0 -1 0 0 0 0 1 0"
         id="feColorMatrix72" />
      <feColorMatrix
         id="feColorMatrix73"
         in="fbSourceGraphic"
         values="1 0 0 0 0 0 1 0 0 0 0 0 1 0 0 -0.2125 -0.7154 -0.0721 1 0 "
         result="colormatrix" />
      <feComposite
         id="feComposite73"
         in="fbSourceGraphic"
         in2="colormatrix"
         operator="arithmetic"
         k2="1"
         k3="6.71733"
         k4="0"
         result="composite"
         k1="0" />
      <feGaussianBlur
         id="feGaussianBlur73"
         stdDeviation="5 0.01"
         result="blur1" />
      <feGaussianBlur
         id="feGaussianBlur74"
         in="composite"
         stdDeviation="0.01 5"
         result="blur2" />
      <feBlend
         id="feBlend74"
         in="blur2"
         in2="blur1"
         mode="darken"
         result="blend" />
    </filter>
  </defs>
  <g
     inkscape:label="Слой 1"
     inkscape:groupmode="layer"
     id="layer1"
     transform="translate(-27.479554,-43.453684)">
    <path
       inkscape:original-d="M 0,0"
       inkscape:path-effect="#path-effect3"
       d="m 82.404623,140.96532 c -8.202312,4.76878 -24.416187,12.01734 -29.852548,8.20216 -5.436362,-3.81518 -0.09543,-18.69349 -1.621524,-32.04621 -1.526094,-13.35272 -9.91899,-25.179075 -8.58362,-29.375573 1.33537,-4.196498 12.398734,-0.76304 25.846868,-7.153374 13.448135,-6.390335 29.280191,-22.603884 33.381271,-22.412967 4.10108,0.190916 -3.528829,16.785962 -3.528753,24.034495 7.6e-5,7.248533 7.629983,5.150309 13.543323,9.156191 5.91333,4.005881 10.10978,14.115508 10.10974,21.840988 -4e-5,7.72549 -4.19649,13.06643 -10.01449,15.73695 -5.81799,2.67052 -13.257145,2.67052 -17.072176,3.81505 -3.815032,1.14453 -4.005779,3.4335 -12.208091,8.20229 z"
       id="path3"
       style="fill:#ff0000;filter:url(#filter71)" />
    <path
       style="fill:#ff0000;fill-opacity:1;fill-rule:nonzero;stroke:none;stroke-width:0;stroke-dasharray:none;stroke-opacity:1;filter:url(#filter68)"
       d="m 79.895472,136.64958 c -1.771901,1.03017 -4.18416,2.32212 -6.966691,3.62394 -2.487558,1.16381 -5.302774,2.349 -8.075114,3.27885 -2.586061,0.86737 -5.004259,1.46666 -6.945442,1.64169 -0.913355,0.0824 -1.591637,0.0579 -2.05606,-0.0168 -0.425344,-0.0684 -0.536072,-0.16882 -0.432383,-0.096 0.05714,0.0401 0.09812,0.0823 0.118775,0.10789 0.01613,0.02 -7.95e-4,0.006 -0.04106,-0.0797 -0.08767,-0.18547 -0.228612,-0.59165 -0.329991,-1.34594 -0.09803,-0.72935 -0.142184,-1.65117 -0.123628,-2.81166 0.01809,-1.13122 0.09361,-2.39814 0.207614,-3.83639 0.219491,-2.76913 0.580239,-6.03494 0.794823,-9.58945 0.205024,-3.39616 0.277327,-7.18088 -0.15591,-10.97155 -0.424669,-3.71569 -1.314824,-7.27847 -2.379797,-10.59317 -1.038052,-3.23091 -2.241245,-6.222643 -3.329227,-8.863171 -0.538637,-1.307269 -1.032318,-2.48838 -1.473187,-3.589667 -0.43621,-1.089649 -0.789708,-2.024991 -1.052511,-2.829777 -0.266134,-0.814983 -0.394004,-1.361374 -0.441562,-1.702611 -0.0209,-0.149957 -0.01718,-0.218551 -0.0187,-0.17635 -0.0015,0.04202 -0.0088,0.200111 -0.09139,0.459772 -0.08672,0.272522 -0.227967,0.553235 -0.423644,0.810054 -0.190751,0.250354 -0.385519,0.415698 -0.524564,0.513216 -0.233912,0.16405 -0.285229,0.118739 0.1422,0.0091 0.402957,-0.103356 0.991403,-0.205664 1.873429,-0.313436 0.880044,-0.10753 1.842808,-0.19733 3.057214,-0.319722 2.322778,-0.234096 5.252913,-0.557141 8.503281,-1.265059 3.233767,-0.704302 6.824151,-1.795996 10.604441,-3.592328 3.709724,-1.762804 7.473844,-4.144475 11.039138,-6.648516 3.552376,-2.49497 7.004096,-5.18091 10.096279,-7.6079 1.549093,-1.215851 2.991641,-2.353914 4.335119,-3.390863 1.340949,-1.034997 2.535739,-1.932327 3.580057,-2.664845 1.063611,-0.746054 1.855941,-1.239049 2.409161,-1.523273 0.25373,-0.130355 0.41665,-0.187986 0.39215,-0.180175 -0.0122,0.0039 -0.0729,0.02406 -0.20563,0.04633 -0.12488,0.02095 -0.34616,0.04772 -0.63974,0.03405 -0.30229,-0.01407 -0.67114,-0.07072 -1.07329,-0.212144 -0.407634,-0.14335 -0.799749,-0.356597 -1.152709,-0.635398 -0.349461,-0.276036 -0.613703,-0.579097 -0.807241,-0.86313 -0.190174,-0.279095 -0.307101,-0.532026 -0.378213,-0.720078 -0.144632,-0.382473 -0.139082,-0.539053 -0.138993,-0.537782 9e-5,0.0013 0.0054,0.152251 -0.01419,0.3918 -0.04247,0.519699 -0.165302,1.271155 -0.390456,2.28292 -0.220654,0.991543 -0.512518,2.115378 -0.853141,3.355612 -0.675765,2.460512 -1.51138,5.248955 -2.200434,7.976851 -0.342304,1.355149 -0.655981,2.729123 -0.885719,4.043621 -0.226592,1.296493 -0.394365,2.660588 -0.394353,3.965517 1.4e-5,1.340483 0.176183,2.662298 0.607762,3.92489 0.440307,1.288121 1.112609,2.413218 1.981282,3.365238 0.855532,0.937614 1.815028,1.61343 2.733408,2.115786 0.907576,0.496446 1.827409,0.85149 2.645179,1.124088 1.67856,0.559539 3.17557,0.888819 4.47785,1.292817 1.32954,0.412457 2.39066,0.857087 3.29011,1.466401 0.92071,0.62372 1.90751,1.582323 2.88181,2.880213 0.97757,1.302238 1.87431,2.855385 2.6342,4.552475 0.76833,1.71596 1.37227,3.52412 1.78222,5.29352 0.41754,1.8021 0.61925,3.49967 0.61924,4.9817 -1e-5,1.48837 -0.20324,2.78864 -0.53957,3.91974 -0.3429,1.15321 -0.83454,2.16594 -1.43304,3.05365 -1.24725,1.84994 -3.01463,3.25455 -5.13227,4.22657 -1.11373,0.51121 -2.36664,0.91924 -3.71267,1.25543 -1.38857,0.34682 -2.83122,0.60626 -4.25975,0.8286 -1.4834,0.23089 -2.936658,0.41929 -4.313324,0.6299 -1.39731,0.21376 -2.84701,0.46911 -4.138406,0.85654 -0.705256,0.21158 -1.355676,0.45939 -1.971047,0.74839 -0.634455,0.29795 -1.195797,0.62291 -1.706079,0.95938 -0.996349,0.65698 -1.907881,1.44315 -2.571808,2.00493 -0.814818,0.68946 -1.590685,1.33917 -2.646281,2.11361 -1.16914,0.85775 -2.583334,1.79288 -4.387523,2.84183 z m 5.018302,8.63148 c 2.077846,-1.20805 3.792026,-2.335 5.275234,-3.42316 1.34387,-0.98594 2.333813,-1.81784 3.189509,-2.54188 0.807367,-0.68315 1.226029,-1.03252 1.618765,-1.29148 0.160596,-0.1059 0.304515,-0.18719 0.454033,-0.2574 0.145678,-0.0684 0.334267,-0.14402 0.595902,-0.22252 0.579735,-0.17392 1.445332,-0.3462 2.779273,-0.55027 1.2151,-0.18589 2.69312,-0.37769 4.33895,-0.63385 1.5627,-0.24323 3.33805,-0.55642 5.14365,-1.00739 1.74631,-0.43617 3.62284,-1.0256 5.45833,-1.86811 3.5368,-1.62343 6.8416,-4.15338 9.24569,-7.71916 1.15827,-1.71797 2.08905,-3.65162 2.72473,-5.78943 0.62299,-2.09518 0.95366,-4.3566 0.95368,-6.76535 1e-5,-2.34992 -0.31472,-4.80896 -0.8769,-7.23534 -0.55475,-2.39433 -1.36391,-4.81435 -2.39634,-7.120138 -1.01722,-2.271784 -2.27529,-4.485987 -3.7619,-6.466334 -1.46253,-1.948252 -3.21672,-3.763426 -5.26688,-5.152268 -2.04816,-1.387489 -4.15064,-2.183742 -5.93154,-2.736223 -1.78074,-0.552429 -3.30216,-0.903217 -4.27876,-1.22876 -0.50347,-0.167831 -0.81537,-0.304568 -1.01112,-0.411643 -0.1806,-0.09879 -0.19061,-0.131175 -0.14944,-0.08606 0.0411,0.04502 0.10076,0.16398 0.0909,0.13511 -0.01,-0.02882 -0.0711,-0.227077 -0.0711,-0.695607 -1e-5,-0.506167 0.0704,-1.245727 0.24527,-2.246509 0.17133,-0.980317 0.42151,-2.093096 0.73075,-3.317367 0.61275,-2.425822 1.42857,-5.158426 2.14797,-7.777821 0.35687,-1.299387 0.69831,-2.604506 0.97125,-3.831013 0.26862,-1.207104 0.4996,-2.462736 0.59569,-3.638523 0.0486,-0.594204 0.0693,-1.243649 0.0227,-1.905853 -0.0454,-0.645203 -0.16451,-1.453835 -0.48179,-2.29286 -0.16305,-0.431186 -0.3901,-0.901455 -0.70973,-1.370546 -0.32304,-0.474082 -0.73613,-0.93983 -1.25496,-1.349647 -0.52239,-0.412631 -1.10446,-0.730778 -1.72374,-0.948557 -0.61386,-0.215872 -1.21612,-0.316482 -1.77468,-0.342485 -0.54995,-0.0256 -1.05047,0.02128 -1.47657,0.09277 -0.428293,0.07186 -0.823507,0.175717 -1.174743,0.287682 -0.691251,0.220352 -1.343202,0.51448 -1.922345,0.81202 -1.151638,0.591666 -2.375011,1.384891 -3.580028,2.230128 -1.228988,0.862053 -2.563202,1.866859 -3.947077,2.934988 -1.385755,1.069581 -2.879763,2.248166 -4.3991,3.440661 -3.090351,2.425553 -6.357046,4.964459 -9.670228,7.291433 -3.347805,2.351291 -6.594872,4.379759 -9.585894,5.801047 -2.971701,1.412104 -5.81541,2.28219 -8.444018,2.854691 -2.668588,0.581208 -5.131288,0.86008 -7.379725,1.086684 -1.105771,0.111443 -2.248151,0.218617 -3.266984,0.343105 -1.025489,0.125301 -2.115136,0.289129 -3.143075,0.552788 -1.013618,0.259986 -2.250679,0.685576 -3.394533,1.487798 -0.596596,0.418415 -1.178785,0.94669 -1.684245,1.610089 -0.511691,0.671576 -0.895527,1.417439 -1.148822,2.213437 -0.248541,0.781059 -0.348075,1.536298 -0.372252,2.209301 -0.02427,0.675699 0.02554,1.322492 0.107832,1.912934 0.162693,1.167368 0.485693,2.341185 0.839218,3.423784 0.362642,1.110522 0.809271,2.279158 1.274414,3.441083 0.465732,1.163393 0.999696,2.441831 1.510954,3.682649 1.072333,2.60255 2.146209,5.28535 3.054901,8.11363 0.928713,2.8906 1.636312,5.78991 1.965801,8.67281 0.339201,2.9679 0.298669,6.10234 0.109479,9.2362 -0.19509,3.23161 -0.54502,6.41558 -0.781747,9.40216 -0.121307,1.53043 -0.214645,3.03288 -0.237557,4.46568 -0.02329,1.45684 0.02463,2.91216 0.211327,4.30127 0.18996,1.41335 0.540439,2.89027 1.198629,4.28272 0.339749,0.71877 0.765963,1.42446 1.300102,2.08587 0.54402,0.67365 1.181263,1.2779 1.913433,1.79173 1.477601,1.03696 3.106633,1.54367 4.58189,1.78101 1.524652,0.24529 3.080135,0.23474 4.538619,0.10323 3.046213,-0.27468 6.297786,-1.13825 9.223706,-2.1196 3.230435,-1.08349 6.408713,-2.42768 9.131223,-3.70142 3.058347,-1.43086 5.732856,-2.86086 7.753969,-4.03592 z"
       id="path1"
       inkscape:path-effect="#path-effect1;#path-effect2"
       inkscape:original-d="M 90.416183,138.48555 C 74.20231,145.7341 57.988437,152.98266 41.774567,160.23121 47.115714,145.3523 52.456646,130.47399 57.797686,115.59537 49.404455,103.76855 41.011559,91.942197 32.618497,80.115605 43.6823,83.549201 54.745664,86.982659 65.809248,90.416183 81.641933,74.201987 97.473988,57.988437 113.30636,41.774567 105.67615,58.370273 98.046242,74.965318 90.416183,91.560691 c 7.63021,-2.098307 15.260117,-4.19653 22.890177,-6.294797 4.19661,10.110031 8.39306,20.219656 12.58959,30.329476 -4.19661,5.34115 -8.39306,10.68209 -12.58959,16.02313 -7.43946,0 -14.878615,0 -22.317923,0 -0.190754,2.28906 -0.381503,4.57803 -0.572254,6.86705 z"
       inkscape:linked-fill="path3" />
  </g>
</svg>
