<?xml version="1.0" encoding="UTF-8" standalone="no"?>
<!-- Created with Inkscape (http://www.inkscape.org/) -->

<svg
   width="210mm"
   height="297mm"
   viewBox="0 0 210 297"
   version="1.1"
   id="svg1"
   inkscape:version="1.3.2 (091e20e, 2023-11-25, custom)"
   sodipodi:docname="ygolniki.svg"
   xmlns:inkscape="http://www.inkscape.org/namespaces/inkscape"
   xmlns:sodipodi="http://sodipodi.sourceforge.net/DTD/sodipodi-0.dtd"
   xmlns="http://www.w3.org/2000/svg"
   xmlns:svg="http://www.w3.org/2000/svg">
  <sodipodi:namedview
     id="namedview1"
     pagecolor="#ffffff"
     bordercolor="#000000"
     borderopacity="0.25"
     inkscape:showpageshadow="2"
     inkscape:pageopacity="0.0"
     inkscape:pagecheckerboard="0"
     inkscape:deskcolor="#d1d1d1"
     inkscape:document-units="mm"
     inkscape:zoom="0.46235269"
     inkscape:cx="395.80174"
     inkscape:cy="561.25984"
     inkscape:window-width="1366"
     inkscape:window-height="715"
     inkscape:window-x="-8"
     inkscape:window-y="-8"
     inkscape:window-maximized="1"
     inkscape:current-layer="layer1" />
  <defs
     id="defs1">
    <inkscape:path-effect
       effect="powerstroke"
       id="path-effect13"
       is_visible="true"
       lpeversion="1.3"
       scale_width="1"
       interpolator_type="CubicBezierJohan"
       interpolator_beta="0.2"
       start_linecap_type="zerowidth"
       end_linecap_type="zerowidth"
       offset_points="0,4.9921382"
       linejoin_type="extrp_arc"
       miter_limit="4"
       not_jump="false"
       sort_points="true"
       message="&lt;b&gt;Ctrl + click&lt;/b&gt; on existing node and move it" />
    <inkscape:path-effect
       effect="powerstroke"
       id="path-effect11"
       is_visible="true"
       lpeversion="1.3"
       scale_width="1"
       interpolator_type="CubicBezierJohan"
       interpolator_beta="0.2"
       start_linecap_type="zerowidth"
       end_linecap_type="zerowidth"
       offset_points="0,4.9921382"
       linejoin_type="extrp_arc"
       miter_limit="4"
       not_jump="false"
       sort_points="true"
       message="&lt;b&gt;Ctrl + click&lt;/b&gt; on existing node and move it" />
    <inkscape:path-effect
       effect="powerstroke"
       id="path-effect9"
       is_visible="true"
       lpeversion="1.3"
       scale_width="1"
       interpolator_type="CubicBezierJohan"
       interpolator_beta="0.2"
       start_linecap_type="zerowidth"
       end_linecap_type="zerowidth"
       offset_points="0,4.9921382"
       linejoin_type="extrp_arc"
       miter_limit="4"
       not_jump="false"
       sort_points="true"
       message="&lt;b&gt;Ctrl + click&lt;/b&gt; on existing node and move it" />
    <inkscape:path-effect
       effect="powerstroke"
       id="path-effect7"
       is_visible="true"
       lpeversion="1.3"
       scale_width="1"
       interpolator_type="CubicBezierJohan"
       interpolator_beta="0.2"
       start_linecap_type="zerowidth"
       end_linecap_type="zerowidth"
       offset_points="0,4.9921382"
       linejoin_type="extrp_arc"
       miter_limit="4"
       not_jump="false"
       sort_points="true"
       message="&lt;b&gt;Ctrl + click&lt;/b&gt; on existing node and move it" />
    <inkscape:path-effect
       effect="powerstroke"
       id="path-effect3"
       is_visible="true"
       lpeversion="1.3"
       scale_width="1"
       interpolator_type="CubicBezierJohan"
       interpolator_beta="0.2"
       start_linecap_type="zerowidth"
       end_linecap_type="zerowidth"
       offset_points="0,4.9921382"
       linejoin_type="extrp_arc"
       miter_limit="4"
       not_jump="false"
       sort_points="true"
       message="&lt;b&gt;Ctrl + click&lt;/b&gt; on existing node and move it" />
    <inkscape:path-effect
       effect="fill_between_many"
       method="bsplinespiro"
       autoreverse="false"
       close="false"
       join="false"
       linkedpaths="#path3,0,1"
       id="path-effect4" />
    <inkscape:path-effect
       effect="fill_between_many"
       method="bsplinespiro"
       autoreverse="false"
       close="false"
       join="false"
       linkedpaths="#path7,0,1"
       id="path-effect8" />
    <inkscape:path-effect
       effect="fill_between_many"
       method="bsplinespiro"
       autoreverse="false"
       close="false"
       join="false"
       linkedpaths="#path9,0,1"
       id="path-effect10" />
    <inkscape:path-effect
       effect="fill_between_many"
       method="bsplinespiro"
       autoreverse="false"
       close="false"
       join="false"
       linkedpaths="#path11,0,1"
       id="path-effect12" />
    <inkscape:path-effect
       effect="fill_between_many"
       method="bsplinespiro"
       autoreverse="false"
       close="false"
       join="false"
       linkedpaths="#path13,0,1"
       id="path-effect14" />
  </defs>
  <g
     inkscape:label="Слой 1"
     inkscape:groupmode="layer"
     id="layer1">
    <path
       style="fill:#666666;stroke:#000000;stroke-width:0.499999;stroke-opacity:0.146953"
       d="M 74.393062,255.22543 28.612716,69.815029 109.30058,35.479767 Z"
       id="path1" />
    <path
       style="fill:#666666;stroke:#000000;stroke-width:0.499999;stroke-opacity:0.146953"
       d="m 127.61272,65.236994 40.63005,64.664736 12.01734,-64.664736 z"
       id="path2" />
    <path
       inkscape:original-d="M 0,0"
       inkscape:path-effect="#path-effect4"
       d="m 145.3526,184.26589 35.20825,61.23122 -64.96548,-5.72255 z"
       id="path4"
       style="fill:#666666" />
    <path
       style="fill:#000000;fill-rule:nonzero;stroke:none;stroke-width:0.499999;stroke-opacity:0.146953"
       d="m 145.13587,184.39051 c 6.11341,10.63192 20.71885,36.03246 34.96921,60.81549 -11.25038,-0.99101 -22.34579,-1.96836 -32.00503,-2.8192 -9.68795,-0.85337 -20.82062,-1.83401 -32.10534,-2.82803 12.05138,-22.48045 24.40802,-45.53034 29.57823,-55.17476 z m -0.004,-0.24274 c -5.1958,9.69218 -17.64939,32.92291 -29.75723,55.50867 a 0.24999949,0.24999949 16.614471 0 0 0.1984,0.36716 c 11.41377,1.00539 22.68681,1.99839 32.48274,2.86127 9.79594,0.86289 21.06897,1.85588 32.48274,2.86128 a 0.24999949,0.24999949 77.567422 0 0 0.23867,-0.37366 C 166.45179,220.4583 151.71692,194.83265 145.56933,184.14127 Z"
       id="path3"
       inkscape:path-effect="#path-effect3"
       inkscape:original-d="m 145.3526,184.26589 35.20825,61.23122 -64.96548,-5.72255 z"
       inkscape:linked-fill="path4" />
    <path
       inkscape:original-d="M 0,0"
       inkscape:path-effect="#path-effect8"
       d="m 141.91907,22.890173 17.73989,20.601156 -50.35838,-8.011562 z"
       id="path8"
       style="fill:#666666" />
    <path
       style="fill:#000000;fill-rule:nonzero;stroke:none;stroke-width:0.499999;stroke-opacity:0.146953"
       d="m 141.72963,23.053303 c 3.03382,3.523143 10.2183,11.866415 17.29446,20.08388 -8.61661,-1.370824 -17.10459,-2.721185 -24.50504,-3.89853 -7.33097,-1.166291 -15.72916,-2.502365 -24.26239,-3.859926 12.99577,-5.015912 26.18084,-10.104887 31.75243,-12.255324 z m 0.0994,-0.39636 c -5.6954,2.198226 -19.34645,7.467051 -32.61849,12.589594 a 0.24999949,0.24999949 38.96731 0 0 0.0507,0.480125 c 8.84745,1.407549 17.58581,2.797743 25.17919,4.005781 7.59338,1.208037 16.33174,2.598231 25.17919,4.005781 a 0.24999949,0.24999949 74.153674 0 0 0.22872,-0.410025 C 152.63027,34.945855 145.20601,26.32414 142.10851,22.727043 Z"
       id="path7"
       inkscape:path-effect="#path-effect7"
       inkscape:original-d="m 141.91907,22.890173 17.73989,20.601156 -50.35838,-8.011562 z"
       inkscape:linked-fill="path8" />
    <path
       inkscape:original-d="M 0,0"
       inkscape:path-effect="#path-effect10"
       d="m 105,109.30058 36.34682,42.91907 -44.63584,88.12717 57.14964,34.9075 L 32.618497,278.1156 18.312139,164.80925 Z"
       id="path10"
       style="fill:#666666" />
    <path
       style="fill:#000000;fill-rule:nonzero;stroke:none;stroke-width:0.499999;stroke-opacity:0.146953"
       d="m 101.19041,112.5268 c 8.51204,10.05119 20.34646,24.02552 34.20649,40.39172 -13.2469,26.15412 -27.86061,55.00682 -43.139381,85.17261 l -2.083116,4.11282 3.934364,2.40314 c 13.897593,8.48877 28.224953,17.24005 42.659933,26.05707 -22.41924,0.52908 -61.812628,1.45876 -99.762001,2.35435 -4.364973,-34.57059 -9.078549,-71.9021 -13.346689,-105.70577 34.111486,-21.84255 63.231089,-40.48864 84.032,-53.80805 z m 1.11758,-7.43033 c -21.338726,13.66379 -51.431876,32.93328 -86.68786,55.50867 l -2.655862,1.70062 0.395056,3.12885 c 4.371599,34.62306 9.224184,73.05553 14.306353,113.30631 l 0.564618,4.47177 4.505982,-0.10634 c 39.33229,-0.92823 80.287203,-1.89476 121.242123,-2.86128 l 16.97414,-0.40059 -14.48971,-8.85043 c -17.94314,-10.95983 -35.88628,-21.91966 -53.21527,-32.50436 15.09906,-29.81096 29.51183,-58.26695 42.55274,-84.01438 l 1.49644,-2.95453 -2.14033,-2.52735 c -14.78227,-17.4552 -27.39984,-32.35429 -36.34682,-42.91907 z"
       id="path9"
       inkscape:path-effect="#path-effect9"
       inkscape:original-d="m 105,109.30058 36.34682,42.91907 -44.63584,88.12717 57.14964,34.9075 L 32.618497,278.1156 18.312139,164.80925 Z"
       inkscape:linked-fill="path10" />
    <path
       inkscape:original-d="M 0,0"
       inkscape:path-effect="#path-effect12"
       d="M 195.71098,135.62427 44.635837,17.16763 192.84971,266.67052 210,161.94797 Z"
       id="path12"
       style="fill:#666666" />
    <path
       style="fill:#000000;fill-rule:nonzero;stroke:none;stroke-width:0.499999;stroke-opacity:0.146953"
       d="M 195.86524,135.42754 C 167.91844,113.51471 108.95305,67.280484 44.790095,16.970896 A 0.24999949,0.24999949 3.6935603 0 0 44.420901,17.29531 C 94.901077,102.27352 148.66052,192.77205 192.63477,266.7982 a 0.24999949,0.24999949 33.749366 0 0 0.46165,-0.0873 c 5.0884,-31.07061 11.30907,-69.05508 17.15029,-104.72255 a 0.24999949,0.24999949 35.403428 0 0 -0.027,-0.15967 C 204.15104,150.64879 198.57397,140.37452 195.9307,135.505 Z m -0.37398,0.316 c 2.63734,4.85859 8.19535,15.09772 14.2482,26.24848 -5.785,35.32414 -11.95779,73.01623 -17.02549,103.96049 C 149.28855,192.85027 95.815261,102.83345 45.533405,18.189091 109.28831,68.178731 167.76271,114.02797 195.55672,135.821 Z"
       id="path11"
       inkscape:path-effect="#path-effect11"
       inkscape:original-d="M 195.71098,135.62427 44.635837,17.16763 192.84971,266.67052 210,161.94797 Z"
       inkscape:linked-fill="path12" />
    <path
       inkscape:original-d="M 0,0"
       inkscape:path-effect="#path-effect14"
       d="M 24.606936,17.16763 36.624278,43.491329 109.30058,35.479767 44.635837,17.16763 28.612716,69.815029 Z"
       id="path14"
       style="fill:#666666" />
    <path
       style="fill:#000000;fill-rule:nonzero;stroke:none;stroke-width:0.499999;stroke-opacity:0.146953"
       d="m 20.065648,19.240827 c 2.860269,6.265351 7.082094,15.513157 12.017342,26.323699 l 1.499447,3.284503 3.588842,-0.39562 c 22.354113,-2.464234 47.128473,-5.195266 72.676281,-8.01156 l 0.81325,-9.765332 C 89.308293,24.629787 67.348552,18.4111 45.996032,12.364369 l -4.710567,-1.333965 -1.425481,4.683722 C 37.040176,24.979211 34.263105,34.103874 31.574326,42.938434 30.794181,32.685109 30.11834,23.802623 29.584686,16.788888 Z m -0.436462,-1.694455 c 0.953423,12.530702 2.360697,31.026314 4.00578,52.647399 l 9.753598,1.074777 c 4.511576,-14.823749 9.470295,-31.116683 14.597645,-47.963692 8.509735,2.409836 21.962848,6.219567 35.360493,10.01359 1.218502,-0.134323 -22.276528,2.455681 -43.680583,4.815183 C 35.376279,28.736838 31.71431,20.715383 29.148224,15.094433 Z"
       id="path13"
       inkscape:path-effect="#path-effect13"
       inkscape:original-d="M 24.606936,17.16763 36.624278,43.491329 109.30058,35.479767 44.635837,17.16763 28.612716,69.815029 Z"
       inkscape:linked-fill="path14" />
  </g>
</svg>
